<svg width="153.44" height="59.601" viewBox="0 0 153.44 59.601" xmlns="http://www.w3.org/2000/svg"><g id="svgGroup" stroke-linecap="round" fill-rule="evenodd" font-size="9pt" stroke="#58a6ff" stroke-width="0.25mm" fill="#58a6ff" style="stroke:#58a6ff;stroke-width:0.25mm;fill:#58a6ff"><path d="M 26.88 49.201 L 0 49.201 L 0 38.161 L 25.28 2.001 L 40.56 2.001 L 40.56 37.361 L 47.12 37.361 L 47.12 49.201 L 40.56 49.201 L 40.56 59.601 L 26.88 59.601 L 26.88 49.201 Z M 27.84 37.361 L 27.84 17.041 L 14.4 37.361 L 27.84 37.361 Z" id="0" vector-effect="non-scaling-stroke"/><path d="M 59.16 7.921 A 26.494 26.494 0 0 0 56.453 13.183 Q 53.84 19.958 53.84 29.601 Q 53.84 43.521 59.16 51.441 A 17.106 17.106 0 0 0 69.71 58.626 A 27.782 27.782 0 0 0 76.32 59.361 A 28.111 28.111 0 0 0 82.62 58.699 A 17.174 17.174 0 0 0 93.48 51.441 Q 98.8 43.521 98.8 29.601 Q 98.8 21.861 97.117 15.969 A 28.232 28.232 0 0 0 93.48 7.921 A 17.106 17.106 0 0 0 82.93 0.736 A 27.782 27.782 0 0 0 76.32 0.001 A 28.111 28.111 0 0 0 70.02 0.663 A 17.174 17.174 0 0 0 59.16 7.921 Z M 85.36 29.601 A 60.046 60.046 0 0 0 85.205 25.132 Q 84.837 20.227 83.6 17.161 Q 81.84 12.801 76.32 12.801 A 10.672 10.672 0 0 0 73.582 13.127 Q 70.319 13.993 69.04 17.161 Q 67.28 21.521 67.28 29.601 A 76.286 76.286 0 0 0 67.363 33.268 Q 67.446 34.985 67.612 36.458 A 33.086 33.086 0 0 0 67.92 38.601 A 14.132 14.132 0 0 0 68.695 41.363 A 10.118 10.118 0 0 0 70.52 44.361 A 6.248 6.248 0 0 0 73.558 46.212 Q 74.559 46.496 75.757 46.549 A 12.693 12.693 0 0 0 76.32 46.561 Q 79.242 46.561 81.076 45.287 A 5.913 5.913 0 0 0 82.12 44.361 A 10.159 10.159 0 0 0 83.982 41.269 A 14.223 14.223 0 0 0 84.72 38.601 A 35.088 35.088 0 0 0 85.104 35.733 Q 85.248 34.22 85.311 32.469 A 79.824 79.824 0 0 0 85.36 29.601 Z" id="1" vector-effect="non-scaling-stroke"/><path d="M 133.2 49.201 L 106.32 49.201 L 106.32 38.161 L 131.6 2.001 L 146.88 2.001 L 146.88 37.361 L 153.44 37.361 L 153.44 49.201 L 146.88 49.201 L 146.88 59.601 L 133.2 59.601 L 133.2 49.201 Z M 134.16 37.361 L 134.16 17.041 L 120.72 37.361 L 134.16 37.361 Z" id="2" vector-effect="non-scaling-stroke"/></g></svg>
